<svg width="28" height="28" viewBox="0 0 28 28" fill="none" xmlns="http://www.w3.org/2000/svg">
<path d="M12.3596 27.4469L0.494382 15.2798C0.314607 15.0955 0.186966 14.8958 0.11146 14.6807C0.0371532 14.4656 0 14.2352 0 13.9894C0 13.7436 0.0371532 13.5131 0.11146 13.298C0.186966 13.083 0.314607 12.8833 0.494382 12.6989L12.3596 0.53178C12.6891 0.193804 13.1008 0.0168279 13.5946 0.000850851C14.0896 -0.0138972 14.5169 0.163079 14.8764 0.53178C15.236 0.869755 15.4235 1.29192 15.4391 1.79827C15.4535 2.30585 15.2809 2.74399 14.9213 3.11269L6.11236 12.1459H26.2022C26.7116 12.1459 27.1389 12.3222 27.484 12.6749C27.828 13.0289 28 13.467 28 13.9894C28 14.5117 27.828 14.9492 27.484 15.3019C27.1389 15.6559 26.7116 15.8329 26.2022 15.8329H6.11236L14.9213 24.866C15.2509 25.204 15.4235 25.6342 15.4391 26.1565C15.4535 26.6788 15.2809 27.109 14.9213 27.4469C14.5918 27.8156 14.1723 28 13.6629 28C13.1536 28 12.7191 27.8156 12.3596 27.4469Z" fill="url(#paint0_linear_1987_7975)"/>
<defs>
<linearGradient id="paint0_linear_1987_7975" x1="32.5" y1="14" x2="-1.75" y2="14" gradientUnits="userSpaceOnUse">
<stop stop-color="#FF3384"/>
<stop offset="0.491005" stop-color="#A68CDE"/>
<stop offset="1" stop-color="#00EDE8"/>
</linearGradient>
</defs>
</svg>
