<svg  viewBox="0 0 28 15" fill="none" xmlns="http://www.w3.org/2000/svg">
<path d="M13.9992 8.79993C9.67974 8.79993 6.64641 6.64953 4.66027 4.44313C3.57499 3.22915 2.6646 1.86952 1.95547 0.403667C1.90352 0.292646 1.85373 0.180625 1.80614 0.0676675L1.79867 0.0546009V0.0527344L0.93254 0.399934L0.0664062 0.747134V0.750868L0.0720063 0.758334C0.0875489 0.797793 0.103729 0.836999 0.12054 0.875934L0.26614 1.19887C1.05293 2.82913 2.06457 4.34093 3.27147 5.69007C5.48721 8.15033 8.98534 10.6666 13.9992 10.6666V8.79993ZM27.0659 0.399934C26.7767 0.285249 26.488 0.169515 26.1997 0.0527344L26.1941 0.0676675L26.1661 0.133001L26.0429 0.403667C25.3338 1.8695 24.4234 3.22912 23.3381 4.44313C21.3539 6.64953 18.3187 8.79993 13.9992 8.79993V10.6666C19.0131 10.6666 22.5131 8.15033 24.7269 5.69007C25.9339 4.34096 26.9455 2.82915 27.7323 1.19887C27.8 1.05339 27.8648 0.906516 27.9264 0.758334L27.9301 0.750868V0.749H27.932L27.0659 0.399934ZM14.9325 14.3999V9.73327H13.0659V14.3999H14.9325ZM2.52667 11.3274L6.26001 7.59407L4.93841 6.27247L1.20507 10.0058L2.52667 11.3274ZM21.7384 7.59407L25.4717 11.3274L26.7933 10.0058L23.06 6.27247L21.7384 7.59407Z" fill="currentColor"/>
</svg>
