<svg width="56" height="56" viewBox="0 0 56 56" fill="none" xmlns="http://www.w3.org/2000/svg">
<path fill-rule="evenodd" clip-rule="evenodd" d="M52 28C52 41.2548 41.2548 52 28 52C14.7452 52 4 41.2548 4 28C4 14.7452 14.7452 4 28 4C41.2548 4 52 14.7452 52 28ZM56 28C56 43.464 43.464 56 28 56C12.536 56 0 43.464 0 28C0 12.536 12.536 0 28 0C43.464 0 56 12.536 56 28ZM15.875 21.3655V18.904C15.8997 18.8905 15.9419 18.875 16 18.875H40C40.0581 18.875 40.1003 18.8905 40.125 18.904V21.3655L28 27.7167L15.875 21.3655ZM28.87 31.4943L40.125 25.5988V37.096C40.1003 37.1095 40.0581 37.125 40 37.125H16C15.9419 37.125 15.8997 37.1095 15.875 37.096V25.5988L27.13 31.4943L28 31.95L28.87 31.4943ZM16 15.125C15.0224 15.125 14.0555 15.4795 13.3188 16.1548C12.5766 16.8351 12.125 17.7946 12.125 18.8333V37.1667C12.125 38.2054 12.5766 39.1649 13.3188 39.8452C14.0555 40.5205 15.0224 40.875 16 40.875H40C40.9776 40.875 41.9445 40.5205 42.6812 39.8452C43.4234 39.1649 43.875 38.2054 43.875 37.1667V18.8333C43.875 17.7946 43.4234 16.8351 42.6812 16.1548C41.9445 15.4795 40.9776 15.125 40 15.125H16Z" fill="url(#paint0_linear_2144_1541)"/>
<defs>
<linearGradient id="paint0_linear_2144_1541" x1="65" y1="28" x2="-3.5" y2="28" gradientUnits="userSpaceOnUse">
<stop stop-color="#FF3384"/>
<stop offset="0.491005" stop-color="#A68CDE"/>
<stop offset="1" stop-color="#00EDE8"/>
</linearGradient>
</defs>
</svg>
