<svg  viewBox="0 0 21 16" fill="none" xmlns="http://www.w3.org/2000/svg">
<path d="M0.699837 7.99981L0.0502371 7.73941C-0.0167457 7.90654 -0.0167457 8.09307 0.0502371 8.26021L0.699837 7.99981ZM20.2998 7.99981L20.9494 8.26021C21.0164 8.09307 21.0164 7.90654 20.9494 7.73941L20.2998 7.99981ZM10.4998 14.2998C7.26024 14.2998 4.98524 12.687 3.49564 11.0322C2.68168 10.1217 1.99888 9.102 1.46704 8.0026C1.42807 7.91934 1.39073 7.83532 1.35504 7.75061L1.34944 7.74081V7.73941L0.699837 7.99981L0.0502371 8.26021V8.26301L0.0544371 8.26861C0.0660941 8.2982 0.078229 8.3276 0.0908371 8.35681L0.200037 8.599C0.790146 9.82169 1.54887 10.9555 2.45404 11.9674C4.11584 13.8126 6.73944 15.6998 10.4998 15.6998V14.2998ZM0.699837 7.99981L1.34944 8.26021L1.35504 8.24901C1.3892 8.16363 1.42656 8.07957 1.46704 7.99701C1.99888 6.89761 2.68168 5.8779 3.49564 4.96741C4.98384 3.3126 7.26024 1.6998 10.4998 1.6998V0.299805C6.73944 0.299805 4.11444 2.187 2.45404 4.0322C1.54886 5.04406 0.79013 6.17791 0.200037 7.40061C0.149162 7.50969 0.100617 7.61985 0.0544371 7.73101L0.0516371 7.7366V7.73801H0.0488371L0.699837 7.99981ZM10.4998 1.6998C13.7394 1.6998 16.0144 3.3126 17.504 4.96741C18.318 5.87792 19.0008 6.89763 19.5326 7.99701C19.5717 8.08021 19.6091 8.16423 19.6446 8.24901L19.6502 8.25881V8.26021L20.2998 7.99981L20.9494 7.73941V7.7366L20.9452 7.73101C20.9346 7.70099 20.9225 7.67155 20.9088 7.64281C20.7441 7.27361 20.5619 6.91247 20.3628 6.56061C19.8495 5.65507 19.2403 4.80739 18.5456 4.0322C16.8838 2.187 14.2602 0.299805 10.4998 0.299805V1.6998ZM20.2998 7.99981C20.083 7.91379 19.8665 7.82699 19.6502 7.73941L19.646 7.75061L19.625 7.7996L19.5326 8.0026C19.0008 9.10198 18.318 10.1217 17.504 11.0322C16.0158 12.687 13.7394 14.2998 10.4998 14.2998V15.6998C14.2602 15.6998 16.8852 13.8126 18.5456 11.9688C19.4509 10.9565 20.2097 9.8222 20.7996 8.599C20.8505 8.4899 20.899 8.37974 20.9452 8.26861L20.948 8.26301V8.2616H20.9494L20.2998 7.99981ZM10.4998 10.0998C9.94288 10.0998 9.40874 9.87856 9.01491 9.48473C8.62109 9.0909 8.39984 8.55676 8.39984 7.99981H6.99984C6.99984 8.92806 7.36859 9.8183 8.02496 10.4747C8.68134 11.1311 9.57158 11.4998 10.4998 11.4998V10.0998ZM12.5998 7.99981C12.5998 8.55676 12.3786 9.0909 11.9848 9.48473C11.5909 9.87856 11.0568 10.0998 10.4998 10.0998V11.4998C11.4281 11.4998 12.3183 11.1311 12.9747 10.4747C13.6311 9.8183 13.9998 8.92806 13.9998 7.99981H12.5998ZM10.4998 5.89981C11.0568 5.89981 11.5909 6.12105 11.9848 6.51488C12.3786 6.90871 12.5998 7.44285 12.5998 7.99981H13.9998C13.9998 7.07155 13.6311 6.18131 12.9747 5.52493C12.3183 4.86855 11.4281 4.4998 10.4998 4.4998V5.89981ZM10.4998 4.4998C9.57158 4.4998 8.68134 4.86855 8.02496 5.52493C7.36859 6.18131 6.99984 7.07155 6.99984 7.99981H8.39984C8.39984 7.44285 8.62109 6.90871 9.01491 6.51488C9.40874 6.12105 9.94288 5.89981 10.4998 5.89981V4.4998Z" fill="currentColor"/>
</svg>
 